<svg xmlns="http://www.w3.org/2000/svg" xmlns:xlink="http://www.w3.org/1999/xlink" viewBox="0 0 727.78 570.81"><defs><style>.cls-1{fill:#aa538b;}.cls-2{fill:#f05676;}.cls-3{fill:url(#linear-gradient);}.cls-4{font-size:107px;fill:#933e6b;font-family:Lato-Bold, Lato;font-weight:700;letter-spacing:0.1em;}</style><linearGradient id="linear-gradient" x1="408.74" y1="548.11" x2="707.24" y2="31.1" gradientUnits="userSpaceOnUse"><stop offset="0" stop-color="#ff9673"/><stop offset="1" stop-color="#785bb0"/></linearGradient></defs><g id="Layer_2" data-name="Layer 2"><g id="Graphic_Elemrnts" data-name="Graphic Elemrnts"><path class="cls-1" d="M225.27,0S425.89,75.74,421.63,185.34h.07V370.68S221.08,294.94,225.34,185.34h-.07Z"/><path class="cls-2" d="M600.35,327.31a274.35,274.35,0,0,1,127.43-47v-58a261.24,261.24,0,0,0-127.43,105Z"/><path class="cls-3" d="M577.55,344.77A272.54,272.54,0,0,1,727.78,210.13V43S442.09,150.81,448.15,306.88h-.09V570.81S460.81,566,480.82,557c-.08-8.47.2-17,.9-25.52A274.23,274.23,0,0,1,577.55,344.77Z"/><path class="cls-2" d="M550.4,442.83a273.85,273.85,0,0,1,10-54A254.81,254.81,0,0,0,500.65,533c-.41,5-.63,10-.76,15,16.23-7.81,35.11-17.53,55-29A272.47,272.47,0,0,1,550.4,442.83Z"/><path class="cls-1" d="M561.77,443.76A261.33,261.33,0,0,0,565.28,513c78.07-46.7,165.79-118.85,162.4-206.07h.1v-7.43a256.29,256.29,0,0,0-148.52,69.36A260.86,260.86,0,0,0,561.77,443.76Z"/></g><g id="Text"><text class="cls-4" transform="translate(0 512.95)">BRAND</text></g></g></svg>